<?xml version="1.0" standalone="no"?>
<!DOCTYPE svg PUBLIC "-//W3C//DTD SVG 20010904//EN"
 "http://www.w3.org/TR/2001/REC-SVG-20010904/DTD/svg10.dtd">
<svg version="1.0" xmlns="http://www.w3.org/2000/svg"
 width="206.000000pt" height="217.000000pt" viewBox="0 0 206.000000 217.000000"
 preserveAspectRatio="xMidYMid meet">

<g transform="translate(0.000000,217.000000) scale(0.100000,-0.100000)"
fill="#000000" stroke="none">
<path d="M317 1856 l-126 -134 75 -33 c182 -79 363 -208 442 -314 97 -130 125
-249 97 -412 -38 -226 -28 -363 39 -508 l33 -70 -5 145 c-6 178 7 277 60 480
61 235 62 358 5 490 -38 87 -125 205 -219 295 -93 90 -234 195 -261 195 -8 0
-71 -60 -140 -134z"/>
<path d="M1746 1834 c-205 -127 -387 -299 -514 -486 -169 -248 -260 -605 -233
-907 11 -116 52 -306 70 -324 9 -9 184 109 273 183 l31 26 -27 51 c-76 152
-106 392 -72 576 19 98 64 234 106 318 87 172 245 359 406 480 52 39 94 73 94
75 0 12 -31 64 -38 63 -4 0 -47 -25 -96 -55z"/>
<path d="M1430 1859 c-118 -26 -200 -55 -305 -105 -130 -61 -123 -50 -81 -135
20 -41 42 -98 48 -126 7 -29 16 -53 19 -53 3 0 28 28 55 62 97 124 264 285
374 360 l25 17 -25 0 c-14 -1 -63 -9 -110 -20z"/>
</g>
</svg>
